<?xml version="1.0" encoding="UTF-8" standalone="no"?>
<svg width="59px" height="80px" viewBox="0 0 59 80" version="1.1" xmlns="http://www.w3.org/2000/svg" xmlns:xlink="http://www.w3.org/1999/xlink">
    <defs></defs>
    <g id="Content-Block---Help-Desk" stroke="none" stroke-width="1" fill="none" fill-rule="evenodd">
        <g id="ContentBlock_HelpDesk" transform="translate(-292.000000, -210.000000)" fill-rule="nonzero" fill="#FFFFFF">
            <g id="Spiceworks-Help-Desk" transform="translate(157.000000, 180.000000)">
                <path d="M135.817481,86.2703643 C135.298436,85.8228396 135,85.1714753 135,84.4861395 L135,32.3558556 C135,31.0547525 136.054752,30 137.355856,30 L191.07369,30 C192.374793,30 193.429546,31.0547525 193.429546,32.3558556 L193.429546,84.4861395 C193.429546,85.1714753 193.131109,85.8228396 192.612065,86.2703643 L165.753148,109.428369 C164.869169,110.190544 163.560377,110.190544 162.676398,109.428369 L135.817481,86.2703643 Z M164.214773,104.533519 L188.717835,83.406754 L188.717835,34.7117112 L139.711711,34.7117112 L139.711711,83.406754 L164.214773,104.533519 Z M173.060607,71.253729 L179.646627,71.2537284 C180.26459,71.2537284 180.766124,71.6469294 180.766124,72.1275083 C180.766124,72.3721667 180.64074,72.5906117 180.436992,72.7478921 L164.766278,84.9808112 C164.563649,85.1380916 164.282656,85.2342074 163.973675,85.2342074 C163.664693,85.2342074 163.3837,85.1380916 163.181071,84.9808112 L147.510357,72.7478921 C147.306609,72.5906117 147.181225,72.3721667 147.181225,72.1275083 C147.181225,71.6469294 147.68276,71.2537284 148.300722,71.2537284 L154.368929,71.253729 L154.368929,46.8259451 C154.368929,46.8259451 173.060607,46.8259451 173.060607,46.8259451 L173.060607,71.253729 Z" id="Icon-HelpDesk"></path>
            </g>
        </g>
    </g>
</svg>